<?xml version="1.0" standalone="no"?>
<!DOCTYPE svg PUBLIC "-//W3C//DTD SVG 20010904//EN"
 "http://www.w3.org/TR/2001/REC-SVG-20010904/DTD/svg10.dtd">
<svg version="1.0" xmlns="http://www.w3.org/2000/svg"
 width="100.000000pt" height="100.000000pt" viewBox="0 0 100.000000 100.000000"
 preserveAspectRatio="xMidYMid meet">
<metadata>
Created by potrace 1.11, written by Peter Selinger 2001-2013
</metadata>
<g transform="translate(0.000000,100.000000) scale(0.100000,-0.100000)"
fill="#000000" stroke="none">
<path d="M380 907 c0 -2 15 -16 32 -33 27 -24 29 -25 13 -4 l-20 25 28 -24
c27 -24 36 -38 17 -26 -5 3 -10 2 -10 -3 0 -9 52 -62 62 -62 3 0 14 12 23 28
l18 27 -26 -23 c-19 -18 -27 -21 -33 -10 -4 7 -3 10 1 5 5 -4 19 3 32 15 13
12 23 18 23 13 0 -4 9 0 20 10 20 19 28 41 10 30 -16 -10 -11 1 7 16 15 12 16
12 8 -1 -8 -13 -7 -13 8 -1 9 7 17 15 17 17 0 2 -52 4 -115 4 -63 0 -115 -1
-115 -3z"/>
<path d="M862 828 l-62 -73 0 -343 0 -343 65 2 65 2 0 414 c0 227 -1 413 -3
413 -1 0 -30 -33 -65 -72z"/>
<path d="M70 485 l0 -405 43 0 c79 0 77 -8 77 357 l0 321 -56 66 c-31 36 -58
66 -60 66 -2 0 -4 -182 -4 -405z"/>
<path d="M250 458 c0 -126 2 -228 4 -228 2 0 29 30 60 66 l56 66 0 90 c0 100
8 82 -97 207 l-22 26 -1 -227z m107 0 l-3 -83 -2 85 c-3 83 -4 86 -42 130
l-40 45 0 -180 1 -180 45 50 c52 57 38 31 -18 -35 l-38 -44 0 208 0 208 50
-61 51 -60 -4 -83z"/>
<path d="M678 580 l-58 -68 0 -216 0 -216 65 0 64 0 0 285 c0 157 -3 285 -7
284 -4 0 -33 -31 -64 -69z"/>
<path d="M550 463 c-1 -5 0 -90 0 -190 l1 -182 -58 -4 -58 -3 63 -2 62 -2 0
195 c0 107 -2 195 -5 195 -3 0 -5 -3 -5 -7z"/>
<path d="M486 388 l-46 -53 2 -120 2 -120 6 123 5 122 43 50 c24 28 41 50 38
50 -2 0 -25 -24 -50 -52z"/>
<path d="M299 173 l-77 -88 75 -3 c42 -2 77 -1 80 1 2 3 3 44 1 91 l-3 87 -76
-88z m71 -8 l0 -75 -66 0 -65 0 63 74 c35 41 64 75 66 75 1 1 2 -33 2 -74z"/>
<path d="M305 155 l-47 -55 51 0 51 0 0 55 c0 30 -2 55 -4 55 -2 0 -25 -25
-51 -55z"/>
</g>
</svg>
